<svg width="33" height="46" viewBox="0 0 33 46" fill="none" xmlns="http://www.w3.org/2000/svg">
<path d="M6.69114 20C6.69114 20.8284 7.36272 21.5 8.19114 21.5C9.01957 21.5 9.69114 20.8284 9.69114 20H6.69114ZM22.9264 20C22.9264 20.8284 23.598 21.5 24.4264 21.5C25.2549 21.5 25.9264 20.8284 25.9264 20H22.9264ZM8.19114 21.5C9.01957 21.5 9.69114 20.8284 9.69114 20C9.69114 19.1716 9.01957 18.5 8.19114 18.5V21.5ZM24.4264 18.5C23.598 18.5 22.9264 19.1716 22.9264 20C22.9264 20.8284 23.598 21.5 24.4264 21.5V18.5ZM8.19114 18.5C7.36272 18.5 6.69114 19.1716 6.69114 20C6.69114 20.8284 7.36272 21.5 8.19114 21.5V18.5ZM24.4264 21.5C25.2549 21.5 25.9264 20.8284 25.9264 20C25.9264 19.1716 25.2549 18.5 24.4264 18.5V21.5ZM9.69114 20V10H6.69114V20H9.69114ZM9.69114 10C9.69114 6.43072 12.6332 3.5 16.3088 3.5V0.5C11.0178 0.5 6.69114 4.73272 6.69114 10H9.69114ZM16.3088 3.5C19.9843 3.5 22.9264 6.43073 22.9264 10H25.9264C25.9264 4.73271 21.5997 0.5 16.3088 0.5V3.5ZM22.9264 10V20H25.9264V10H22.9264ZM8.19114 18.5H6.16173V21.5H8.19114V18.5ZM6.16173 18.5C3.11241 18.5 0.602905 20.9418 0.602905 24H3.60291C3.60291 22.6398 4.72779 21.5 6.16173 21.5V18.5ZM0.602905 24V36H3.60291V24H0.602905ZM0.602905 36C0.602905 41.2672 4.92958 45.5 10.2206 45.5V42.5C6.54501 42.5 3.60291 39.5692 3.60291 36H0.602905ZM10.2206 45.5H22.397V42.5H10.2206V45.5ZM22.397 45.5C27.6879 45.5 32.0147 41.2672 32.0147 36H29.0147C29.0147 39.5692 26.0725 42.5 22.397 42.5V45.5ZM32.0147 36V24H29.0147V36H32.0147ZM32.0147 24C32.0147 20.9418 29.5052 18.5 26.4558 18.5V21.5C27.8898 21.5 29.0147 22.6398 29.0147 24H32.0147ZM26.4558 18.5H24.4264V21.5H26.4558V18.5ZM8.19114 21.5H24.4264V18.5H8.19114V21.5ZM15.8235 32C15.8235 31.7033 16.0615 31.5 16.3088 31.5V34.5C17.6769 34.5 18.8235 33.4013 18.8235 32H15.8235ZM16.3088 31.5C16.5561 31.5 16.7941 31.7033 16.7941 32H13.7941C13.7941 33.4013 14.9407 34.5 16.3088 34.5V31.5ZM16.7941 32C16.7941 32.2967 16.5561 32.5 16.3088 32.5V29.5C14.9407 29.5 13.7941 30.5987 13.7941 32H16.7941ZM16.3088 32.5C16.0615 32.5 15.8235 32.2967 15.8235 32H18.8235C18.8235 30.5987 17.6769 29.5 16.3088 29.5V32.5Z" fill="#234CAD"/>
</svg>
